<svg width="163.000000" height="53.000000" viewBox="0 0 163 53" fill="none" xmlns="http://www.w3.org/2000/svg" xmlns:xlink="http://www.w3.org/1999/xlink">
	<desc>
			Created with Pixso.
	</desc>
	<defs/>
	<path id="nline" d="M118.933 44.5205L117.363 44.5205L117.363 18.749L118.933 18.749L118.933 44.5205ZM126.154 20.2397C125.969 19.9858 125.682 19.8589 125.292 19.8589C124.923 19.8589 124.645 19.9858 124.461 20.2397Q124.183 20.604 124.183 21.2334Q124.183 21.8628 124.461 22.2271C124.645 22.4702 124.923 22.5913 125.292 22.5913C125.682 22.5913 125.969 22.4702 126.154 22.2271C126.339 21.9844 126.431 21.6528 126.431 21.2334C126.431 20.814 126.339 20.4824 126.154 20.2397ZM106.092 26.1689Q108.542 26.1689 110.002 27.3711Q110.221 27.5518 110.418 27.7588Q111.927 29.3491 111.927 32.7441L111.927 44.5205L110.387 44.5205L110.387 32.8438Q110.387 30.1606 109.248 28.9019Q109.072 28.7075 108.872 28.543Q107.773 27.6431 105.938 27.6431Q103.846 27.6431 102.499 28.6445Q102.072 28.9629 101.719 29.3823Q100.271 31.1045 100.271 34.5991L100.271 44.5205L98.7163 44.5205L98.7163 26.5166L99.979 26.5166L100.21 29.7964L100.302 29.7964C100.6 29.1226 101.005 28.5151 101.519 27.9741Q101.55 27.9409 101.583 27.9082L101.583 27.9082Q102.35 27.127 103.443 26.666Q104.583 26.1689 106.092 26.1689ZM139.011 26.1689C140.89 26.1689 142.332 26.6992 143.338 27.7588C144.344 28.8188 144.847 30.481 144.847 32.7441L144.847 44.5205L143.307 44.5205L143.307 32.8438C143.307 31.0552 142.927 29.7412 142.167 28.9019Q141.992 28.7075 141.791 28.5435L141.791 28.543Q140.693 27.6431 138.857 27.6431C137.02 27.6431 135.613 28.2227 134.638 29.3823C133.673 30.5303 133.191 32.2695 133.191 34.5991L133.191 44.5205L131.636 44.5205L131.636 26.5166L132.898 26.5166L133.129 29.7964L133.222 29.7964C133.519 29.1226 133.925 28.5151 134.438 27.9741C134.962 27.4224 135.603 26.9863 136.363 26.666C137.122 26.3345 138.005 26.1689 139.011 26.1689ZM160.167 27.2456C159.223 26.5278 158.037 26.1689 156.61 26.1689C155.029 26.1689 153.695 26.5884 152.607 27.4277Q152.478 27.5264 152.355 27.6309Q150.923 28.8413 150.143 30.8232C149.589 32.2583 149.312 33.876 149.312 35.6758C149.312 37.52 149.599 39.1318 150.174 40.5122C150.759 41.8926 151.621 42.9634 152.761 43.7251Q154.485 44.8516 157.026 44.8516C158.094 44.8516 159.038 44.7578 159.859 44.5698C160.68 44.3931 161.501 44.1064 162.323 43.7085L162.323 42.1685C161.388 42.6099 160.536 42.9248 159.767 43.1123C159.007 43.2891 158.109 43.3774 157.072 43.3774Q154.996 43.3774 153.588 42.4072Q152.981 41.9888 152.499 41.3901C151.442 40.0649 150.913 38.166 150.913 35.6924L163 35.6924L163 34.4834C163 32.8711 162.764 31.4414 162.292 30.1938Q161.718 28.6436 160.637 27.6392Q160.413 27.4307 160.167 27.2456ZM126.047 44.5205L126.047 26.5166L124.491 26.5166L124.491 44.5205L126.047 44.5205ZM152.699 29.3325C153.695 28.1841 154.993 27.6099 156.595 27.6099C157.683 27.6099 158.576 27.8916 159.274 28.4546C159.982 29.0068 160.511 29.7852 160.86 30.79C161.209 31.7949 161.383 32.9541 161.383 34.2681L150.959 34.2681C151.134 32.1147 151.714 30.4697 152.699 29.3325Z" fill="#0F172A" fill-opacity="1.000000" fill-rule="evenodd"/>
	<path id="o" d="M93 27.4688C93 30.0752 92.6462 32.4541 91.9387 34.6055C91.2314 36.7363 90.1816 38.5771 88.7893 40.1284C87.3972 41.6802 85.6628 42.8799 83.5862 43.728C81.5322 44.5762 79.136 45 76.3972 45C73.7957 45 71.4792 44.5864 69.4482 43.7588C67.417 42.9106 65.6941 41.7109 64.2791 40.1597C62.887 38.6084 61.8257 36.7671 61.0955 34.6367C60.3652 32.4854 60 30.0962 60 27.4688C60 23.8491 60.6619 20.7358 61.9856 18.1294C63.332 15.5024 65.249 13.4961 67.7366 12.1099C70.2468 10.7031 73.248 10 76.7397 10C80.3455 10 83.3464 10.7446 85.7427 12.2339C88.1619 13.7026 89.9761 15.7505 91.1858 18.3774C92.3953 21.0049 93 24.0352 93 27.4688ZM63.5601 27.4688C63.5601 30.4272 64.0281 33.0127 64.9636 35.2261C65.8994 37.4395 67.3142 39.1665 69.2085 40.4077C71.1255 41.6489 73.5447 42.2695 76.4658 42.2695C79.4553 42.2695 81.9087 41.6489 83.8257 40.4077C85.7427 39.1665 87.1577 37.4292 88.0706 35.1948C88.9834 32.9609 89.4399 30.3857 89.4399 27.4688C89.4399 24.6353 89.0061 22.1113 88.1389 19.8979C87.2717 17.6846 85.9026 15.9473 84.031 14.6851C82.1597 13.4028 79.7178 12.7617 76.7053 12.7617C72.3921 12.7617 69.1172 14.0649 66.8806 16.6709C64.667 19.2773 63.5601 22.877 63.5601 27.4688Z" fill="#0D9488" fill-opacity="1.000000" fill-rule="nonzero"/>
	<path id="Line 1 (Stroke)" d="M47 53L47 0L48.9709 0L48.9709 53L47 53Z" fill="#0F172A" fill-opacity="1.000000" fill-rule="evenodd"/>
	<path id="X" d="M37 47L33.0417 47L18.5168 29.6387L3.79053 47L0 47L16.5042 27.7661L1.47607 10L5.40063 10L18.6509 25.9185L32.0017 10L35.7925 10L20.6636 27.7407L37 47Z" fill="#EA580C" fill-opacity="1.000000" fill-rule="nonzero"/>
</svg>
