<svg width="33.000000" height="35.000000" viewBox="0 0 33 35" fill="none" xmlns="http://www.w3.org/2000/svg" xmlns:xlink="http://www.w3.org/1999/xlink">
	<desc>
			Created with Pixso.
	</desc>
	<defs/>
	<path id="o" d="M33 17.4688C33 20.0752 32.6462 22.4541 31.9387 24.6055C31.2314 26.7363 30.1816 28.5771 28.7893 30.1284C27.3972 31.6802 25.6628 32.8799 23.5862 33.728C21.5322 34.5762 19.136 35 16.3972 35C13.7957 35 11.4792 34.5864 9.44824 33.7588C7.41699 32.9106 5.69409 31.7109 4.27905 30.1597C2.88696 28.6084 1.82568 26.7671 1.09546 24.6367C0.365234 22.4854 0 20.0962 0 17.4688C0 13.8491 0.661865 10.7358 1.9856 8.12939C3.33203 5.50244 5.24902 3.49609 7.73657 2.10986C10.2468 0.703125 13.248 0 16.7397 0C20.3455 0 23.3464 0.744629 25.7427 2.23389C28.1619 3.70264 29.9761 5.75049 31.1858 8.37744C32.3953 11.0049 33 14.0352 33 17.4688ZM3.56006 17.4688C3.56006 20.4272 4.02808 23.0127 4.96362 25.2261C5.89941 27.4395 7.31421 29.1665 9.2085 30.4077C11.1255 31.6489 13.5447 32.2695 16.4658 32.2695C19.4553 32.2695 21.9087 31.6489 23.8257 30.4077C25.7427 29.1665 27.1577 27.4292 28.0706 25.1948C28.9834 22.9609 29.4399 20.3857 29.4399 17.4688C29.4399 14.6353 29.0061 12.1113 28.1389 9.89795C27.2717 7.68457 25.9026 5.94727 24.031 4.68506C22.1597 3.40283 19.7178 2.76172 16.7053 2.76172C12.3921 2.76172 9.11719 4.06494 6.88062 6.6709C4.66699 9.27734 3.56006 12.877 3.56006 17.4688Z" fill="#0D9488" fill-opacity="1.000000" fill-rule="nonzero"/>
</svg>
