<svg width="16.000000" height="16.000000" viewBox="0 0 16 16" fill="none" xmlns="http://www.w3.org/2000/svg" xmlns:xlink="http://www.w3.org/1999/xlink">
	<desc>
			Created with Pixso.
	</desc>
	<defs>
		<clipPath id="clip197_4045">
			<rect id="Icon" width="16.000000" height="16.000000" fill="white" fill-opacity="0"/>
		</clipPath>
	</defs>
	<rect id="Icon" width="16.000000" height="16.000000" fill="#FFFFFF" fill-opacity="0"/>
	<g clip-path="url(#clip197_4045)">
		<path id="Vector" d="M0.347656 15.8687C0.475586 15.9541 0.626953 16 0.78125 16C0.883789 16 0.985352 15.98 1.08008 15.9409C1.1748 15.9014 1.26172 15.8438 1.33398 15.7715L8 9.10498L14.666 15.7715C14.7393 15.8438 14.8252 15.9014 14.9199 15.9409C15.0146 15.98 15.1162 16 15.2188 16C15.373 16 15.5244 15.9541 15.6533 15.8687C15.7812 15.7827 15.8818 15.6606 15.9404 15.5181C16 15.375 16.0156 15.2178 15.9854 15.0664C15.9551 14.915 15.8809 14.7754 15.7715 14.6665L9.10547 8L15.7715 1.33398C15.918 1.1875 16 0.98877 16 0.78125C16 0.574219 15.918 0.375488 15.7715 0.229004C15.625 0.0825195 15.4258 0 15.2188 0C15.0117 0 14.8125 0.0825195 14.666 0.229004L8 6.89502L1.33398 0.229004C1.1875 0.0825195 0.988281 0 0.78125 0C0.574219 0 0.375 0.0825195 0.228516 0.229004C0.0820312 0.375488 0 0.574219 0 0.78125C0 0.98877 0.0820312 1.1875 0.228516 1.33398L6.89551 8L0.228516 14.6665C0.119141 14.7754 0.0449219 14.915 0.0146484 15.0664C-0.015625 15.2178 0 15.375 0.0595703 15.5181C0.118164 15.6606 0.21875 15.7827 0.347656 15.8687Z" fill="#FFFFFF" fill-opacity="1.000000" fill-rule="evenodd"/>
	</g>
</svg>
